<?xml version="1.0" standalone="no"?>
<!DOCTYPE svg PUBLIC "-//W3C//DTD SVG 20010904//EN"
 "http://www.w3.org/TR/2001/REC-SVG-20010904/DTD/svg10.dtd">
<svg version="1.0" xmlns="http://www.w3.org/2000/svg"
 width="770.000000pt" height="1280.000000pt" viewBox="0 0 770.000000 1280.000000"
 preserveAspectRatio="xMidYMid meet">
<metadata>
Created by potrace 1.15, written by Peter Selinger 2001-2017
</metadata>
<g transform="translate(0.000000,1280.000000) scale(0.100000,-0.100000)"
fill="#3f51b5" stroke="none">
<path d="M3220 12735 l0 -65 -335 0 -335 0 0 -70 0 -70 -200 0 -200 0 0 -65 0
-65 -202 -2 -203 -3 -3 -67 -3 -68 -129 0 -130 0 0 -65 0 -65 -70 0 -70 0 0
-65 0 -65 -65 0 -65 0 0 -70 0 -70 -135 0 -135 0 0 -65 0 -64 -68 -3 -67 -3
-3 -67 -3 -68 -64 0 -65 0 0 -65 0 -64 -68 -3 -67 -3 -3 -132 -3 -133 -64 0
-65 0 0 -135 0 -135 -65 0 -65 0 0 -135 0 -135 -70 0 -70 0 0 -200 0 -200 -65
0 -65 0 0 -560 0 -560 65 0 65 0 2 -197 3 -198 67 -3 68 -3 0 -134 0 -135 65
0 65 0 0 -65 0 -65 70 0 70 0 0 -70 0 -70 65 0 65 0 0 -65 0 -65 70 0 70 0 0
-70 0 -70 200 0 200 0 0 -65 0 -65 422 2 423 3 3 68 3 67 199 0 200 0 0 65 0
65 65 0 64 0 3 66 3 66 65 2 65 1 3 68 3 67 64 0 65 0 0 135 0 135 70 0 70 0
0 270 0 270 65 0 c49 0 65 3 65 14 0 7 -9 16 -20 19 -16 4 -20 14 -20 51 0 39
3 46 20 46 13 0 20 7 20 20 0 17 -8 19 -67 22 l-68 3 -3 333 -2 332 -65 0 -65
0 0 70 0 70 -65 0 -64 0 -3 63 -3 62 -67 3 -68 3 0 69 0 70 -67 0 -68 0 3 65
4 65 -136 0 -135 0 -3 66 -3 65 -200 2 -200 2 -3 68 -3 67 -65 0 -65 0 3 113
3 112 68 3 67 3 0 64 0 65 65 0 65 0 0 70 0 70 135 0 135 0 0 65 0 65 135 0
135 0 0 65 0 65 650 0 650 0 0 -65 0 -65 135 0 134 0 3 -66 3 -67 65 -1 65 -1
3 -67 3 -68 64 0 64 0 3 -67 3 -68 65 -1 65 -1 3 -67 3 -66 64 0 65 0 0 -135
0 -135 68 0 67 0 0 -268 0 -267 65 -3 65 -3 -3 -314 -3 -315 -64 0 -65 0 0
-335 0 -335 -65 0 -65 0 0 -135 0 -135 -70 0 -70 0 0 -200 0 -200 -65 0 -65 0
0 -65 0 -64 -67 -3 -68 -3 -3 -137 -3 -138 -64 0 -65 0 0 -130 0 -129 -67 -3
-68 -3 -3 -67 -3 -68 -64 0 -65 0 0 -135 0 -135 -65 0 -65 0 0 -130 0 -129
-67 -3 -68 -3 -3 -202 -2 -203 -65 0 -65 0 -2 -267 -3 -268 -67 -3 -68 -3 0
-469 0 -470 -65 0 -65 0 0 -150 0 -149 68 -3 67 -3 1 -65 2 -65 421 -3 421 -3
2 203 3 203 68 3 67 3 0 267 0 267 62 0 63 0 3 203 2 202 70 0 70 0 0 65 0 65
65 0 65 0 0 70 0 70 65 0 65 0 0 65 0 65 70 0 70 0 0 65 0 65 65 0 65 0 0 70
0 70 70 0 70 0 0 65 0 65 65 0 65 0 0 70 0 70 65 0 65 0 0 65 0 64 138 3 137
3 3 68 3 67 64 0 65 0 0 65 0 65 135 0 135 0 0 65 0 65 65 0 65 0 0 70 0 70
135 0 134 0 3 68 3 67 65 1 65 1 3 67 3 66 64 0 65 0 0 65 0 65 65 0 64 0 3
68 3 67 68 3 67 3 0 64 0 65 65 0 64 0 3 68 3 67 68 3 67 3 0 64 0 65 65 0 65
0 0 135 0 135 70 0 70 0 0 200 0 200 65 0 65 0 0 689 c0 680 0 689 -20 694
-16 4 -20 14 -20 51 0 39 3 46 20 46 13 0 20 7 20 20 0 18 -7 20 -70 20 l-70
0 0 135 0 135 -65 0 -65 0 0 135 0 135 -70 0 -71 0 2 133 1 132 -66 3 -66 3 0
64 0 65 -65 0 -64 0 -3 66 -3 67 -65 1 -65 1 -3 68 -3 67 -64 0 -65 0 0 65 0
64 -67 3 -68 3 -3 68 -3 67 -64 0 -65 0 0 65 0 65 -135 0 -135 0 0 70 0 70
-135 0 -135 0 0 65 0 65 -135 0 -135 0 0 70 0 70 -200 0 -200 0 0 65 0 65
-405 0 -405 0 0 65 0 65 -625 0 -625 0 0 -65z"/>
<path d="M3090 3060 l0 -70 -135 0 -135 0 0 -65 0 -65 -65 0 -64 0 -3 -67 -3
-68 -67 -3 -68 -3 0 -64 0 -65 -65 0 -65 0 0 -65 0 -64 -67 -3 -68 -3 -3 -202
-2 -203 -65 0 -65 0 0 -490 0 -490 70 0 70 0 0 -135 0 -135 65 0 65 0 0 -135
0 -135 65 0 65 0 0 -65 0 -65 135 0 135 0 0 -65 0 -64 68 -3 67 -3 3 -67 3
-68 199 0 200 0 0 -65 0 -65 355 0 355 0 0 65 0 65 203 2 202 3 1 65 1 65 67
3 66 3 0 64 0 65 65 0 64 0 3 68 3 67 68 3 67 3 0 64 0 65 65 0 64 0 3 68 3
67 68 3 67 3 0 199 0 200 65 0 65 0 0 420 0 419 -67 3 -68 3 -3 133 -3 132
-64 0 -65 0 0 135 0 134 -67 3 -68 3 -3 68 -3 67 -64 0 -65 0 0 65 0 65 -135
0 -135 0 0 65 0 64 -132 3 -133 3 -3 68 -3 67 -554 0 -555 0 0 -70z"/>
</g>
</svg>
